<svg width="168" height="70" viewBox="0 0 168 70" fill="none" xmlns="http://www.w3.org/2000/svg">
<g clip-path="url(#clip0_2_341)">
<path d="M16.6306 24.8144C13.5417 26.4938 10.405 28.0775 7.2207 29.5678C5.35696 30.4387 6.98022 33.203 8.83359 32.3363C12.0179 30.846 15.1546 29.2623 18.2435 27.5829C20.0534 26.5998 18.4405 23.8313 16.6306 24.8144Z" fill="white"/>
<path d="M20.6774 38.6408C19.0417 41.3802 20.0596 44.8512 22.8521 46.3415C22.9599 46.3976 23.0657 46.4412 23.1693 46.4745C23.1901 46.4849 23.2108 46.4953 23.2336 46.5036C25.7151 47.5428 28.9015 46.5784 30.3299 44.2672C31.9407 41.6629 30.9 38.1836 28.377 36.5894C25.7068 34.9017 22.2509 36.0054 20.6774 38.6408ZM27.4296 42.831C26.6563 43.7393 25.4311 43.8619 24.3717 43.5169C21.3782 41.7918 24.4982 37.4083 26.9963 39.5325C27.9437 40.3368 28.2796 41.8333 27.4296 42.831Z" fill="white"/>
<path d="M39.8248 17.1389C33.3193 17.008 26.8159 16.875 20.3105 16.744C17.0992 16.6796 13.8879 16.6172 10.6746 16.557C7.71207 16.5009 4.50909 16.1101 1.62537 16.954C0.868675 17.0018 0.161738 17.5151 0.186616 18.4962C0.505877 30.8567 0.443684 43.2234 3.42532e-05 55.5777C-0.0310627 56.459 0.758799 57.1594 1.59842 57.1802C7.9795 57.3465 14.3585 57.5128 20.7396 57.677C26.8159 57.8349 32.8384 58.1217 38.8504 57.0098C40.8717 56.6357 40.0155 53.545 38.0005 53.9191C32.1211 55.0082 26.1505 54.6133 20.2068 54.4574C14.5534 54.3099 8.89997 54.1644 3.24655 54.0168C3.62593 42.6228 3.68191 31.2204 3.4124 19.8222C5.91674 19.3483 8.70302 19.7245 11.1949 19.7702C14.4062 19.8305 17.6175 19.895 20.8308 19.9594C26.6563 20.0758 32.4818 20.1943 38.3073 20.3127C38.7157 28.7533 38.6659 37.2084 38.158 45.6448C38.0336 47.7046 41.2325 47.6983 41.3548 45.6448C41.8938 36.6846 41.9166 27.7037 41.4232 18.7414C41.3755 17.8622 40.7287 17.1576 39.8248 17.1389Z" fill="white"/>
<path d="M70.5527 65.5643C69.369 65.7472 68.2246 66.1276 67.0844 66.5141C66.8957 62.7293 66.7568 58.9341 66.6884 55.1471C66.6677 53.9874 65.0424 54.0372 64.9242 55.1471C64.4536 59.6095 64.2131 64.0387 64.2235 68.5261C64.2255 69.5134 65.1667 70.1826 66.0976 69.9581C68.0795 69.478 70.0925 68.684 71.4276 67.0733C72.0246 66.352 71.4525 65.4292 70.5527 65.5664V65.5643Z" fill="white"/>
<path d="M75.4266 56.3029C75.1571 60.1564 74.6823 64.4172 75.9531 68.1376C76.1957 68.8463 77.4541 69.0396 77.5868 68.1376C78.1569 64.2467 77.3027 60.1938 76.9835 56.3029C76.9006 55.3053 75.497 55.2949 75.4266 56.3029Z" fill="white"/>
<path d="M89.0117 54.975C86.8433 54.8836 84.7328 55.8189 82.5892 56.062C81.6211 56.1722 81.5879 57.4505 82.5187 57.6084C82.498 57.6874 82.4835 57.7705 82.4835 57.8641C82.4275 61.2436 82.2886 64.6772 82.5664 68.0505C82.612 68.5992 82.9271 69.1376 83.4972 69.2747C83.7439 69.335 83.9264 69.3558 84.171 69.2747C84.7038 69.096 85.1018 68.6304 85.1018 68.0505C85.1018 66.6975 85.0355 65.3402 84.9339 63.9851C86.3851 63.4322 87.998 62.9126 88.9931 61.6988C89.4347 61.1605 89.1506 60.3811 88.4313 60.3374C87.1273 60.2605 85.8896 60.8155 84.7079 61.4037C84.5918 60.221 84.4675 59.0405 84.3514 57.8661C84.3472 57.8246 84.3368 57.7872 84.3286 57.7477C86.2006 57.8079 88.0954 57.5689 89.5881 56.3697C90.1768 55.8978 89.6503 55.0062 89.0138 54.9792L89.0117 54.975Z" fill="white"/>
<path d="M100.337 59.0114C99.4728 59.3377 98.5876 59.5705 97.7625 59.9945C97.1281 60.3208 96.5124 60.6658 95.876 60.9817L95.6977 58.3941C95.6894 58.2839 95.6645 58.1883 95.6251 58.1052C97.182 57.7976 98.7618 57.2655 99.6864 56.0911C99.9911 55.7046 99.8087 55.1413 99.2821 55.1143C97.2815 55.0145 95.167 56.2096 93.2617 56.7313C92.3558 56.9786 92.4988 58.5666 93.4919 58.4336C93.7241 58.4024 93.9687 58.3712 94.2175 58.3359C94.2154 58.3567 94.2092 58.3733 94.2092 58.3961C94.118 60.2356 94.0247 62.0771 93.9334 63.9165C93.8692 65.1906 93.3322 67.1776 94.1283 68.3062C95.4344 70.156 99.8854 68.7759 100.764 67.0903C101.013 66.6122 100.818 65.918 100.238 65.7913C99.4438 65.6167 98.9069 65.7663 98.1212 65.9555C97.6029 66.0802 96.8255 66.4002 96.1828 66.4564C96.0812 65.8349 96.1538 64.9952 96.1227 64.5317C96.0812 63.9186 96.0377 63.3054 95.9962 62.6923C95.9962 62.6674 95.9921 62.6445 95.9921 62.6195C96.9187 62.4678 97.8662 62.2932 98.7369 61.9461C99.6449 61.5824 100.371 60.9734 101.113 60.3478C101.708 59.8448 101.073 58.737 100.339 59.0155L100.337 59.0114Z" fill="white"/>
<path d="M118.655 61.4806C117.924 62.3141 117.283 63.1538 116.572 63.9374C116.367 63.6214 116.163 63.3055 115.964 62.9854C115.848 62.7984 115.421 62.0626 114.969 61.1834C116.105 59.5352 116.941 57.6979 115.755 56.1473C115.009 55.1705 113.678 55.0977 112.697 55.767C111.428 56.6337 111.321 58.257 111.768 59.61C111.955 60.1733 112.189 60.7262 112.455 61.2686C112.32 61.4328 112.183 61.595 112.05 61.7592C111.186 62.8233 110.263 63.9623 109.923 65.3216C109.241 68.0444 111.35 69.7487 113.858 68.6035C114.841 68.1545 115.842 67.5497 116.765 66.8202C117.341 67.346 117.934 67.8386 118.529 68.2875C119.051 68.6804 119.601 67.8594 119.199 67.4167C118.736 66.9054 118.301 66.3733 117.888 65.8225C118.906 64.8145 119.746 63.6505 120.216 62.3889C120.542 61.516 119.257 60.7948 118.655 61.4786V61.4806ZM113.991 57.4464C114.37 57.4214 114.349 58.3318 114.312 58.5438C114.281 58.7225 114.167 58.9387 114.034 59.1486C113.678 58.2175 113.543 57.4755 113.991 57.4464ZM111.914 66.6643C111.443 66.1073 112.475 64.5983 112.782 64.1203C112.979 63.8127 113.236 63.4718 113.52 63.1039C114.026 63.8563 114.592 64.5734 115.202 65.2509C115.032 65.3902 114.855 65.5253 114.671 65.6542C114.159 66.0158 112.49 67.3502 111.911 66.6643H111.914Z" fill="white"/>
<path d="M136.638 59.6228C137.392 58.1865 136.822 56.4635 135.197 55.9501C133.449 55.3973 131.637 56.6714 131.235 58.3736C130.702 60.6204 132.22 62.0462 133.646 63.4887C134.032 63.8794 134.782 64.5923 134.654 65.2429C134.475 66.1512 132.95 66.0264 132.334 65.9454C131.005 65.7708 130.01 65.0309 129.442 63.8212C129.148 63.1935 128.295 63.5739 128.25 64.1455C127.943 68.001 133.337 69.8404 135.952 67.3276C137.222 66.1054 136.947 64.2099 136.003 62.8776C135.423 62.0587 134.585 61.5058 133.951 60.741C133.482 60.1756 133.066 59.2881 133.462 58.5565C133.955 57.6462 135.373 57.9247 135.218 59.0242C135.104 59.8244 136.19 60.4812 136.64 59.6248L136.638 59.6228Z" fill="white"/>
<path d="M146.574 55.193C145.388 54.8209 144.095 55.2803 142.93 55.5692C141.671 55.8809 140.297 56.0244 139.167 56.6895C138.564 57.0449 138.642 58.0799 139.37 58.2421C140.543 58.5019 141.762 58.2608 142.934 58.0238C142.691 58.1174 142.484 58.3605 142.438 58.7554C142.084 61.7837 141.122 65.1092 141.445 68.1708C141.545 69.1061 142.72 69.7504 143.185 68.707C144.511 65.7203 144.167 61.9729 143.856 58.7575C143.804 58.2317 143.477 57.976 143.147 57.9823C143.207 57.9698 143.265 57.9573 143.326 57.9469C144.567 57.6996 146.041 57.471 146.908 56.4712C147.285 56.0348 147.142 55.3759 146.572 55.1971L146.574 55.193Z" fill="white"/>
<path d="M155.48 58.6105C154.927 57.1057 153.268 53.2273 151.181 55.4887C151.034 55.6466 150.98 55.8378 150.99 56.0249C150.961 56.0769 150.938 56.1309 150.924 56.1953C150.084 59.9137 148.5 64.1683 149.025 68.0113C149.108 68.6182 150.063 68.693 150.32 68.1817C151.029 66.7746 151.421 65.1701 151.67 63.5094C152.282 63.4699 152.933 63.3868 153.492 63.1519C153.741 63.048 153.959 62.917 154.156 62.7674C154.622 64.7107 154.749 67.2277 155.773 68.9445C156.245 69.7364 157.763 69.7135 157.921 68.6639C158.165 67.0552 157.593 65.3841 157.174 63.8295C156.702 62.0649 156.111 60.3273 155.48 58.6147V58.6105ZM152.561 61.0797C152.34 61.1919 152.128 61.3145 151.913 61.4309C152.06 59.8139 152.136 58.1969 152.284 56.7025C152.725 57.1036 153.241 59.3151 153.302 59.5292C153.409 59.9033 153.509 60.2795 153.61 60.6557C153.254 60.7742 152.908 60.903 152.559 61.0797H152.561Z" fill="white"/>
<path d="M166.679 55.1206C166.35 57.1658 165.929 59.2214 165.436 61.2437C164.515 60.8946 163.566 60.3251 162.946 59.5748C162.181 58.6478 161.812 57.461 161.441 56.3365C161.099 55.3035 159.542 55.7192 159.807 56.7876C160.381 59.0967 162.069 63.5363 165.091 62.6051C164.55 64.6441 163.29 67.0779 163.628 69.198C163.709 69.7009 164.326 69.7134 164.639 69.4661C166.381 68.0901 166.858 64.9039 167.281 62.8629C167.803 60.3334 167.973 57.8663 167.905 55.2869C167.886 54.6156 166.8 54.3994 166.682 55.1206H166.679Z" fill="white"/>
<path d="M126.162 36.4066C118.786 35.5502 119.476 25.6859 119.595 20.3381C119.597 20.2155 119.601 20.0907 119.605 19.9681C120.463 17.7379 121.249 15.4787 121.999 13.209C123.225 9.50314 125.024 5.43978 124.755 1.46371C124.678 0.345504 123.164 -0.589797 122.308 0.447348C117.64 6.09033 116.435 13.2651 116.211 20.3776C114.497 24.3931 112.48 28.3172 109.919 31.8402C108.474 33.8293 106.733 35.7082 104.598 36.9594C102.651 38.1005 100.157 38.9069 98.4859 37.001C101.289 34.4944 103.598 31.4141 105.371 28.1073C106.866 25.3201 108.234 21.9863 106.861 18.8769C105.709 16.2664 102.929 14.7616 100.186 15.8819C97.5281 16.9668 95.8427 19.7852 94.775 22.3168C93.5581 25.1996 93.0315 28.4066 93.3384 31.5284C93.4773 32.9501 93.7468 34.457 94.2422 35.8682C86.5447 41.3553 74.645 41.6879 69.2486 32.8025C66.4084 28.1281 67.0428 22.2606 70.2955 17.9416C71.8421 15.8881 74.1723 14.0175 76.7927 13.6974C79.2639 13.3961 82.0108 14.5579 82.9416 16.9918C83.1987 17.6631 84.1233 17.4033 84.0093 16.6966C83.6092 14.19 81.7558 12.307 79.438 11.4319C76.7575 10.4197 73.6934 11.0557 71.3446 12.6104C66.1597 16.0399 63.2096 22.6285 64.1425 28.7787C64.9904 34.3572 69.0455 39.3081 74.1288 41.6172C80.0683 44.315 86.9448 43.7497 92.7289 40.9126C93.8546 40.3598 94.9284 39.7196 95.9505 39.0067C96.1516 39.2519 96.363 39.4889 96.5952 39.7092C98.9068 41.9207 101.983 41.717 104.741 40.5052C110.017 38.1857 113.622 32.8815 116.251 27.6417C116.412 29.9093 116.825 32.1395 117.822 34.193C119.435 37.5123 122.785 40.0147 126.548 39.2374C128.271 38.882 127.653 36.5707 126.164 36.3962L126.162 36.4066ZM97.7127 23.0546C98.4362 21.4272 100.132 18.0435 102.396 18.5631C104.95 19.1492 104.264 22.7366 103.534 24.3931C102.029 27.8184 99.6676 31.0961 96.8668 33.7129C96.56 32.5593 96.417 31.3497 96.3734 30.244C96.276 27.7935 96.7134 25.2973 97.7127 23.0525V23.0546Z" fill="white"/>
<path d="M99.564 8.63194C101.071 7.90657 102.483 7.02115 103.893 6.12118C105.052 5.38333 106.799 4.52078 107.388 3.23838C107.682 2.60029 107.355 1.52366 106.47 1.63382C104.956 1.82088 103.741 3.03885 102.587 3.99285C101.239 5.1069 99.9019 6.23134 98.6995 7.50543C98.1232 8.11649 98.8446 8.97697 99.564 8.62987V8.63194Z" fill="white"/>
<path d="M136.47 8.51576C136.994 8.75478 137.519 8.99588 138.058 9.20372C138.535 9.3887 139.047 9.44274 139.548 9.53212C140.021 9.61526 140.498 9.476 140.753 9.0416C140.987 8.64046 140.929 8.06889 140.587 7.74673C140.189 7.37053 139.806 6.96731 139.349 6.66178C138.918 6.37288 138.46 6.13386 138.006 5.88444C137.285 5.48954 136.348 5.7057 135.925 6.43108C135.543 7.08579 135.719 8.17489 136.47 8.51784V8.51576Z" fill="white"/>
<path d="M140.11 37.4802C137.351 38.3905 135.976 35.2957 135.659 33.1237C135.168 29.7608 135.469 26.1817 135.846 22.823C136.047 21.0417 133.176 20.705 132.755 22.4031C132.141 24.8744 131.822 27.3561 131.77 29.9022C131.727 32.043 131.731 34.375 132.491 36.4035C133.201 38.2949 134.442 39.9514 136.391 40.6477C138.182 41.2879 140.009 41.0489 141.385 39.6771C142.285 38.7813 141.379 37.0603 140.11 37.4802Z" fill="white"/>
<path d="M149.01 41.6707C150.391 43.2503 152.592 43.8073 154.537 43.0154C158.94 41.2217 160.163 35.1215 160.174 30.9022C160.178 28.6617 159.813 25.9597 158.83 23.6443C161.447 23.7628 164.071 23.5466 166.673 22.9293C168.705 22.4471 168.298 19.1403 166.176 19.2442C161.905 19.4562 157.582 19.3918 153.368 18.6165C150.745 18.0595 149.617 22.0169 152.252 22.6695C152.402 22.7069 152.553 22.7402 152.702 22.7755C154.232 23.2452 155.012 24.8145 155.472 26.3151C156.198 28.6741 156.372 31.2306 155.976 33.6686C155.677 35.5122 155.105 38.2433 153.351 39.3012C151.809 40.2303 151.096 37.9004 150.805 36.8009C148.141 26.7246 149.45 16.2367 151.473 6.19783C151.668 5.22927 150.264 4.47687 149.779 5.48284C145.301 14.7631 144.882 25.8537 146.752 35.8593C147.134 37.9024 147.6 40.064 149.008 41.6727L149.01 41.6707Z" fill="white"/>
</g>
<defs>
<clipPath id="clip0_2_341">
<rect width="168" height="70" fill="white"/>
</clipPath>
</defs>
</svg>
