<svg width="110" height="56" viewBox="0 0 110 56" fill="none" xmlns="http://www.w3.org/2000/svg">
<mask id="mask0_979_47" style="mask-type:luminance" maskUnits="userSpaceOnUse" x="48" y="10" width="10" height="9">
<path d="M48.3398 10.0415H57.349V18.6573H48.3398V10.0415Z" fill="white"/>
</mask>
<g mask="url(#mask0_979_47)">
<path d="M52.9207 10.2495L54.2522 13.3837H57.2349L55.0767 15.4893L55.5858 18.4593L52.9207 17.0542L50.2514 18.4593L50.7604 15.4893L48.6064 13.3837H51.585L52.9207 10.2495Z" fill="#E58013"/>
</g>
<path d="M43.283 1.76221L44.1811 3.87409H46.1942L44.7386 5.29183L45.0814 7.29012L43.283 6.34566L41.4887 7.29012L41.8295 5.29183L40.376 3.87409H42.3848L43.283 1.76221Z" fill="#264790"/>
<path d="M37.2059 17.6182L37.797 19.0065H39.1158L38.1609 19.9341L38.388 21.2487L37.2059 20.6282L36.0279 21.2487L36.2551 19.9341L35.3022 19.0065H36.619L37.2059 17.6182Z" fill="#E58013"/>
<mask id="mask1_979_47" style="mask-type:luminance" maskUnits="userSpaceOnUse" x="8" y="12" width="28" height="44">
<path d="M8.54199 12.1953H35.4159V55.4594H8.54199V12.1953Z" fill="white"/>
</mask>
<g mask="url(#mask1_979_47)">
<path fill-rule="evenodd" clip-rule="evenodd" d="M12.0251 30.9206C10.1173 42.1195 17.2249 52.7778 28.0809 55.4597C27.5529 55.4092 27.0186 55.3398 26.4843 55.2472C14.7512 53.251 6.85689 42.1111 8.85518 30.38C10.8556 18.6469 21.9892 10.7484 33.7224 12.7467C34.2567 12.8413 34.7846 12.9507 35.3021 13.0769C24.1684 12.0168 13.9351 19.7176 12.0251 30.9206Z" fill="#E58013"/>
</g>
<path fill-rule="evenodd" clip-rule="evenodd" d="M44.6084 47.5377C26.8656 57.6427 9.35425 32.9375 24.76 19.5405C24.2657 19.8245 23.7798 20.1316 23.3045 20.4682C15.5363 25.9771 13.7021 36.7427 19.2069 44.5108C24.7159 52.2789 35.4814 54.111 43.2495 48.6062C43.7249 48.2676 44.1772 47.9121 44.6084 47.5377Z" fill="#264790"/>
<mask id="mask2_979_47" style="mask-type:luminance" maskUnits="userSpaceOnUse" x="0" y="0" width="38" height="28">
<path d="M0 0.540039H37.0316V27.8115H0V0.540039Z" fill="white"/>
</mask>
<g mask="url(#mask2_979_47)">
<path fill-rule="evenodd" clip-rule="evenodd" d="M31.5415 6.86959L32.6122 9.45686C31.7687 9.36641 30.9231 9.32224 30.0817 9.32224C24.3266 9.32224 18.7146 11.3689 14.2762 15.0794C12.7996 16.31 11.4891 17.7025 10.3512 19.2212L9.23002 16.5077L9.08908 16.1711L8.00159 16.0933L4.45725 15.8409L1.93098 15.66L1.83212 15.6537V23.1673C2.09295 23.3208 2.26964 23.6027 2.26964 23.9224C2.26964 24.1959 2.14133 24.442 1.9415 24.5997C1.90785 24.6292 1.87209 24.6565 1.83212 24.6754V25.5L2.74923 27.3363H0L0.900284 25.5337V24.7259C0.641558 24.5766 0.462763 24.2968 0.462763 23.9729C0.462763 23.6679 0.616316 23.4007 0.854008 23.2451C0.870836 23.2325 0.883457 23.2177 0.900284 23.2072C0.921319 23.1946 0.938147 23.182 0.961285 23.1673V15.5927L16.0537 1.2344L33.0392 0.811603L36.8801 0.714844L31.5415 6.86959Z" fill="#264790"/>
</g>
<path d="M45.0342 40.7831C43.7889 40.7831 42.6362 40.5685 41.5761 40.1436C40.5159 39.7124 39.5925 39.1129 38.8079 38.343C38.0212 37.569 37.4112 36.6666 36.9737 35.6338C36.5361 34.5968 36.3174 33.4693 36.3174 32.2514C36.3174 31.0356 36.5361 29.9102 36.9737 28.8774C37.4112 27.8404 38.0212 26.938 38.8079 26.1682C39.5925 25.3941 40.5159 24.7946 41.5761 24.3676C42.6362 23.9364 43.7889 23.7197 45.0342 23.7197C46.2794 23.7197 47.4321 23.9364 48.4923 24.3676C49.5524 24.7946 50.4716 25.3941 51.252 26.1682C52.0303 26.938 52.6361 27.8404 53.0694 28.8774C53.5069 29.9102 53.7257 31.0356 53.7257 32.2514C53.7257 33.4693 53.5069 34.5968 53.0694 35.6338C52.6361 36.6666 52.0303 37.569 51.252 38.343C50.4716 39.1129 49.5524 39.7124 48.4923 40.1436C47.4321 40.5685 46.2794 40.7831 45.0342 40.7831ZM45.0342 37.4428C46.0144 37.4428 46.8894 37.2156 47.6593 36.7612C48.4334 36.3069 49.0413 35.6927 49.4851 34.9186C49.9268 34.1403 50.1498 33.2505 50.1498 32.2514C50.1498 31.2712 49.9268 30.3877 49.4851 29.601C49.0413 28.8164 48.4334 28.2001 47.6593 27.75C46.8894 27.2956 46.0144 27.0684 45.0342 27.0684C44.0687 27.0684 43.1957 27.2956 42.4174 27.75C41.6371 28.2001 41.0207 28.8164 40.5664 29.601C40.1162 30.3877 39.8933 31.2712 39.8933 32.2514C39.8933 33.2337 40.1162 34.1172 40.5664 34.9018C41.0207 35.6885 41.6371 36.3069 42.4174 36.7612C43.1957 37.2156 44.0687 37.4428 45.0342 37.4428Z" fill="white"/>
<path d="M56.5093 40.4298V24.0732H60.0599V40.4298H56.5093Z" fill="white"/>
<path d="M77.4476 40.4298H73.1229L67.3509 32.4366V40.4298H63.8003V24.0732H67.3509V31.6205L72.7022 24.0732H76.8418L71.255 31.8981L77.4476 40.4298Z" fill="white"/>
<path d="M86.8882 40.7831C85.6429 40.7831 84.4902 40.5685 83.4301 40.1436C82.3699 39.7124 81.4465 39.1129 80.6619 38.343C79.8752 37.569 79.2652 36.6666 78.8277 35.6338C78.3901 34.5968 78.1714 33.4693 78.1714 32.2514C78.1714 31.0356 78.3901 29.9102 78.8277 28.8774C79.2652 27.8404 79.8752 26.938 80.6619 26.1682C81.4465 25.3941 82.3699 24.7946 83.4301 24.3676C84.4902 23.9364 85.6429 23.7197 86.8882 23.7197C88.1334 23.7197 89.2861 23.9364 90.3463 24.3676C91.4064 24.7946 92.3256 25.3941 93.106 26.1682C93.8843 26.938 94.4901 27.8404 94.9234 28.8774C95.3609 29.9102 95.5797 31.0356 95.5797 32.2514C95.5797 33.4693 95.3609 34.5968 94.9234 35.6338C94.4901 36.6666 93.8843 37.569 93.106 38.343C92.3256 39.1129 91.4064 39.7124 90.3463 40.1436C89.2861 40.5685 88.1334 40.7831 86.8882 40.7831ZM86.8882 37.4428C87.8684 37.4428 88.7434 37.2156 89.5133 36.7612C90.2874 36.3069 90.8953 35.6927 91.3391 34.9186C91.7808 34.1403 92.0038 33.2505 92.0038 32.2514C92.0038 31.2712 91.7808 30.3877 91.3391 29.601C90.8953 28.8164 90.2874 28.2001 89.5133 27.75C88.7434 27.2956 87.8684 27.0684 86.8882 27.0684C85.9227 27.0684 85.0497 27.2956 84.2714 27.75C83.4911 28.2001 82.8747 28.8164 82.4204 29.601C81.9703 30.3877 81.7473 31.2712 81.7473 32.2514C81.7473 33.2337 81.9703 34.1172 82.4204 34.9018C82.8747 35.6885 83.4911 36.3069 84.2714 36.7612C85.0497 37.2156 85.9227 37.4428 86.8882 37.4428Z" fill="white"/>
<path d="M103.782 40.7581C102.537 40.7581 101.437 40.533 100.484 40.085C99.5354 39.6307 98.7929 38.9828 98.2544 38.1414C97.7201 37.3 97.4551 36.2967 97.4551 35.1292H101.031C101.031 35.9201 101.304 36.507 101.856 36.8877C102.411 37.2706 103.046 37.4599 103.765 37.4599C104.214 37.4599 104.636 37.3884 105.036 37.2411C105.434 37.096 105.76 36.8793 106.012 36.5932C106.269 36.303 106.399 35.9538 106.399 35.5499C106.399 35.1292 106.25 34.799 105.953 34.5571C105.661 34.3173 105.265 34.1175 104.767 33.9597C104.266 33.804 103.723 33.6547 103.134 33.5138C102.522 33.3749 101.898 33.2025 101.258 33.0005C100.623 32.7986 100.032 32.5293 99.4828 32.1928C98.938 31.8562 98.5026 31.4061 98.1787 30.8382C97.8526 30.2723 97.6907 29.5508 97.6907 28.6758C97.6907 27.1066 98.2228 25.8971 99.2893 25.0494C100.354 24.1975 101.799 23.7705 103.622 23.7705C105.49 23.7705 106.938 24.2417 107.964 25.184C108.995 26.1264 109.512 27.4095 109.512 29.0292H106.004C106.004 28.3287 105.753 27.8092 105.255 27.4726C104.76 27.1361 104.186 26.9678 103.53 26.9678C102.951 26.9678 102.421 27.094 101.94 27.3464C101.456 27.5946 101.216 27.9838 101.216 28.5159C101.216 28.903 101.359 29.2122 101.645 29.4415C101.935 29.6665 102.318 29.8516 102.789 29.9968C103.265 30.144 103.793 30.2871 104.371 30.4259C104.994 30.5836 105.629 30.7687 106.281 30.9812C106.938 31.1894 107.545 31.4734 108.107 31.831C108.667 32.1907 109.121 32.6682 109.47 33.2614C109.823 33.8503 110 34.5971 110 35.4994C110 36.6837 109.714 37.666 109.142 38.4443C108.574 39.2247 107.823 39.8052 106.887 40.186C105.955 40.5667 104.92 40.7581 103.782 40.7581Z" fill="white"/>
<path d="M52 50.1878C51.67 50.1878 51.3795 50.1196 51.1286 49.9853C50.8756 49.8445 50.6732 49.6509 50.5213 49.4044C50.3739 49.158 50.3013 48.8741 50.3013 48.5506V45.9805H51.1903V48.5154C51.1903 48.7685 51.2651 48.9709 51.4191 49.1228C51.5709 49.2702 51.7646 49.3428 52 49.3428C52.2399 49.3428 52.4335 49.2702 52.581 49.1228C52.7328 48.9709 52.8098 48.7685 52.8098 48.5154V45.9805H53.6988V48.5506C53.6988 48.8741 53.624 49.158 53.4788 49.4044C53.3313 49.6509 53.1289 49.8445 52.8714 49.9853C52.6118 50.1196 52.3213 50.1878 52 50.1878Z" fill="#264790"/>
<path d="M60.0414 45.9805H60.9128V50.0998H60.1734L58.3074 47.5296V50.0998H57.4272V45.9805H58.237L60.0414 48.4978V45.9805Z" fill="#264790"/>
<path d="M64.6831 50.0998V45.9805H65.5809V50.0998H64.6831Z" fill="#264790"/>
<path d="M71.9663 45.9805H72.9346L71.3854 50.0998H70.5404L68.9297 45.9805H69.9155L70.9541 48.8939L71.9663 45.9805Z" fill="#264790"/>
<path d="M77.2118 49.2724H78.8489V50.0998H76.314V45.9805H78.7873V46.8078H77.2118V47.6176H78.6377V48.4274H77.2118V49.2724Z" fill="#264790"/>
<path d="M84.7064 50.0998L83.9055 48.6915H83.3333V50.0998H82.4355V45.9805H84.0991C84.3742 45.9805 84.6206 46.0399 84.8385 46.1565C85.0541 46.2753 85.2258 46.436 85.349 46.6406C85.4722 46.8475 85.5338 47.0807 85.5338 47.3448C85.5338 47.6154 85.4656 47.8553 85.3314 48.0665C85.1949 48.2734 85.0167 48.4318 84.7945 48.5418L85.7011 50.0998H84.7064ZM83.3333 46.8078V47.8729H84.0463C84.2267 47.8729 84.372 47.8245 84.4776 47.7232C84.5832 47.6242 84.636 47.4988 84.636 47.3448C84.636 47.1863 84.5832 47.0587 84.4776 46.9575C84.372 46.8585 84.2267 46.8078 84.0463 46.8078H83.3333Z" fill="#264790"/>
<path d="M90.5199 50.1791C90.2074 50.1791 89.9324 50.1219 89.6925 50.0118C89.4505 49.9018 89.2634 49.739 89.1292 49.5277C88.9928 49.3121 88.9268 49.0568 88.9268 48.762H89.8334C89.8334 48.9622 89.8994 49.1119 90.0358 49.2109C90.1766 49.3055 90.3373 49.3517 90.5199 49.3517C90.6299 49.3517 90.7355 49.3341 90.8368 49.2989C90.9358 49.2593 91.0172 49.2021 91.0832 49.1317C91.147 49.0612 91.18 48.9732 91.18 48.8676C91.18 48.762 91.1404 48.6806 91.0656 48.6211C90.9952 48.5639 90.894 48.5133 90.7664 48.4715C90.6431 48.4319 90.5067 48.3923 90.3615 48.3571C90.2074 48.3219 90.049 48.2823 89.8862 48.2339C89.7277 48.181 89.5781 48.115 89.4373 48.0314C89.3008 47.9434 89.193 47.829 89.1116 47.6881C89.028 47.5429 88.9884 47.3603 88.9884 47.1424C88.9884 46.7507 89.1226 46.4471 89.3933 46.2358C89.6617 46.0202 90.027 45.9102 90.4847 45.9102C90.9534 45.9102 91.3165 46.0312 91.5761 46.271C91.8336 46.5065 91.9634 46.8256 91.9634 47.2304H91.0832C91.0832 47.0544 91.0172 46.9268 90.8896 46.8432C90.7664 46.7551 90.6211 46.7111 90.4583 46.7111C90.3109 46.7111 90.1766 46.7441 90.0534 46.808C89.9346 46.874 89.8774 46.9708 89.8774 47.0984C89.8774 47.1996 89.9126 47.2789 89.983 47.3361C90.0578 47.3889 90.1546 47.4373 90.2734 47.4769C90.3901 47.5121 90.5221 47.5473 90.6695 47.5825C90.828 47.6243 90.9886 47.6705 91.1536 47.7233C91.3165 47.7762 91.4705 47.851 91.6113 47.9434C91.7522 48.0314 91.8666 48.1502 91.9546 48.2955C92.0426 48.4429 92.0866 48.6299 92.0866 48.8588C92.0866 49.1581 92.0118 49.4089 91.8666 49.607C91.7258 49.8006 91.5365 49.9458 91.3033 50.0383C91.0678 50.1307 90.806 50.1791 90.5199 50.1791Z" fill="#264790"/>
<path d="M95.6294 50.0998V45.9805H96.5272V50.0998H95.6294Z" fill="#264790"/>
<path d="M103.142 45.9805V46.8166H101.998V50.0998H101.1V46.8166H99.9644V45.9805H103.142Z" fill="#264790"/>
<path d="M110 45.9805L108.557 48.4362V50.0998H107.632V48.4274L106.198 45.9805H107.148L108.099 47.6264L109.05 45.9805H110Z" fill="#264790"/>
</svg>
