<svg width="121" height="50" viewBox="0 0 121 50" fill="none" xmlns="http://www.w3.org/2000/svg">
<g id="&#236;&#133;&#128;&#235;&#166;&#189; &#235;&#161;&#156;&#234;&#179;&#160;" clip-path="url(#clip0_2_260)">
<path id="Vector" d="M11.978 17.7247C9.75317 18.9243 7.49404 20.0555 5.20057 21.12C3.85823 21.742 5.02736 23.7166 6.36224 23.0975C8.65571 22.033 10.9148 20.9018 13.1396 19.7022C14.4431 19 13.2815 17.0225 11.978 17.7247Z" fill="black"/>
<path id="Vector_2" d="M14.8926 27.6003C13.7145 29.557 14.4477 32.0363 16.4589 33.1007C16.5366 33.1408 16.6127 33.172 16.6874 33.1958C16.7023 33.2032 16.7173 33.2106 16.7337 33.2165C18.521 33.9588 20.8159 33.27 21.8447 31.6191C23.0049 29.7589 22.2553 27.2737 20.4382 26.135C18.515 24.9295 16.0259 25.7178 14.8926 27.6003ZM19.7558 30.5932C19.1989 31.242 18.3164 31.3296 17.5534 31.0832C15.3973 29.8509 17.6445 26.7199 19.4437 28.2372C20.1261 28.8117 20.368 29.8806 19.7558 30.5932Z" fill="black"/>
<path id="Vector_3" d="M28.6833 12.242C23.9979 12.1485 19.3139 12.0535 14.6284 11.96C12.3155 11.914 10.0026 11.8694 7.68823 11.8264C5.55453 11.7863 3.24762 11.5072 1.17066 12.1099C0.625657 12.1441 0.116495 12.5108 0.134413 13.2115C0.364357 22.0404 0.319563 30.8738 2.97567e-05 39.6983C-0.0223674 40.3278 0.546521 40.8281 1.15124 40.843L14.9375 41.1978C19.3139 41.3106 23.6514 41.5155 27.9816 40.7212C29.4374 40.454 28.8207 38.2464 27.3694 38.5136C23.1348 39.2915 18.8346 39.0095 14.5537 38.8981C10.4819 38.7927 6.4101 38.6888 2.33829 38.5834C2.61154 30.4448 2.65186 22.3002 2.45775 14.1587C4.26147 13.8202 6.26825 14.0889 8.06301 14.1216C10.3759 14.1646 12.6888 14.2106 15.0032 14.2567C19.1989 14.3398 23.3946 14.4244 27.5904 14.509C27.8845 20.538 27.8487 26.5774 27.4829 32.6034C27.3933 34.0746 29.6972 34.0702 29.7853 32.6034C30.1735 26.2033 30.1899 19.7883 29.8346 13.3867C29.8002 12.7587 29.3344 12.2554 28.6833 12.242Z" fill="black"/>
<path id="Vector_4" d="M50.8147 46.8319C49.9621 46.9625 49.1379 47.2342 48.3166 47.5103C48.1808 44.8069 48.0807 42.096 48.0314 39.391C48.0165 38.5626 46.8459 38.5982 46.7608 39.391C46.4218 42.5785 46.2486 45.7422 46.2561 48.9474C46.2576 49.6526 46.9355 50.1306 47.6059 49.9703C49.0333 49.6274 50.4832 49.0602 51.4448 47.9097C51.8748 47.3945 51.4627 46.7354 50.8147 46.8333V46.8319Z" fill="black"/>
<path id="Vector_5" d="M54.3251 40.2165C54.131 42.9689 53.7891 46.0124 54.7044 48.6698C54.8791 49.176 55.7854 49.3141 55.881 48.6698C56.2916 45.8906 55.6764 42.9956 55.4465 40.2165C55.3868 39.5038 54.3759 39.4964 54.3251 40.2165Z" fill="black"/>
<path id="Vector_6" d="M64.1097 39.2678C62.5479 39.2025 61.0279 39.8705 59.484 40.0442C58.7867 40.1229 58.7628 41.036 59.4332 41.1488C59.4183 41.2052 59.4078 41.2646 59.4078 41.3314C59.3675 43.7454 59.2675 46.1979 59.4675 48.6074C59.5004 48.9994 59.7274 49.3839 60.138 49.4819C60.3157 49.5249 60.4471 49.5398 60.6232 49.4819C61.007 49.3542 61.2937 49.0216 61.2937 48.6074C61.2937 47.641 61.2459 46.6715 61.1727 45.7035C62.2179 45.3086 63.3796 44.9375 64.0963 44.0705C64.4143 43.686 64.2098 43.1292 63.6917 43.0981C62.7525 43.0431 61.8611 43.4395 61.01 43.8597C60.9264 43.0149 60.8368 42.1717 60.7531 41.3329C60.7502 41.3032 60.7427 41.2765 60.7367 41.2482C62.085 41.2913 63.4498 41.1206 64.5248 40.264C64.9489 39.9269 64.5696 39.2901 64.1112 39.2708L64.1097 39.2678Z" fill="black"/>
<path id="Vector_7" d="M72.2668 42.1509C71.6441 42.384 71.0066 42.5503 70.4123 42.8531C69.9554 43.0862 69.5119 43.3326 69.0535 43.5583C69.0102 42.9422 68.9669 42.3261 68.9251 41.71C68.9192 41.6313 68.9012 41.563 68.8729 41.5036C69.9942 41.2839 71.132 40.9038 71.7979 40.065C72.0174 39.7889 71.886 39.3866 71.5068 39.3673C70.0659 39.296 68.5429 40.1497 67.1707 40.5223C66.5182 40.699 66.6212 41.8332 67.3364 41.7382C67.5037 41.7159 67.6798 41.6936 67.859 41.6684C67.8575 41.6833 67.853 41.6951 67.853 41.7115C67.7873 43.0253 67.7202 44.3407 67.6545 45.6546C67.6082 46.5646 67.2214 47.9839 67.7948 48.7901C68.7355 50.1114 71.9413 49.1256 72.5744 47.9216C72.7535 47.5801 72.6132 47.0842 72.1951 46.9937C71.6232 46.869 71.2365 46.9759 70.6706 47.111C70.2973 47.2 69.7374 47.4287 69.2745 47.4688C69.2014 47.0249 69.2536 46.4251 69.2312 46.094C69.2014 45.6561 69.17 45.2181 69.1401 44.7801L69.1372 44.7282C69.8046 44.6198 70.487 44.4951 71.1141 44.2472C71.7681 43.9874 72.2907 43.5524 72.8252 43.1055C73.2538 42.7462 72.7969 41.9549 72.2683 42.1539L72.2668 42.1509Z" fill="black"/>
<path id="Vector_8" d="M85.4601 43.9146C84.933 44.5099 84.4717 45.1097 83.9595 45.6694C83.8117 45.4437 83.6654 45.2181 83.522 44.9895C83.4384 44.8558 83.1308 44.3303 82.8053 43.7023C83.6236 42.525 84.2253 41.2126 83.3712 40.1051C82.8337 39.4073 81.8751 39.3554 81.1688 39.8334C80.255 40.4525 80.1774 41.612 80.4999 42.5785C80.6343 42.9808 80.803 43.3757 80.9941 43.7632C80.8971 43.8805 80.7985 43.9963 80.703 44.1135C80.0803 44.8737 79.4159 45.6872 79.171 46.6582C78.6797 48.603 80.1983 49.8204 82.005 49.0023C82.7127 48.6817 83.4339 48.2496 84.0984 47.7286C84.5135 48.1042 84.9405 48.456 85.369 48.7767C85.7453 49.0573 86.141 48.4709 85.8513 48.1546C85.5183 47.7894 85.2048 47.4094 84.9077 47.0159C85.6408 46.2959 86.2455 45.4645 86.5845 44.5634C86.8189 43.9398 85.8931 43.4247 85.4601 43.9131V43.9146ZM82.1005 41.033C82.3738 41.0152 82.3589 41.6654 82.332 41.8169C82.3096 41.9445 82.2275 42.0989 82.1319 42.2489C81.8751 41.5838 81.778 41.0538 82.1005 41.033ZM80.6044 47.6172C80.2655 47.2193 81.0091 46.1415 81.23 45.8001C81.3719 45.5803 81.557 45.3369 81.7616 45.0741C82.1259 45.6115 82.5336 46.1237 82.9725 46.6077C82.8501 46.7071 82.7232 46.8036 82.5903 46.8957C82.2215 47.154 81.0195 48.1071 80.6029 47.6172H80.6044Z" fill="black"/>
<path id="Vector_9" d="M98.4118 42.5874C98.9553 41.5615 98.5446 40.3308 97.374 39.9641C96.1153 39.5707 94.8103 40.4792 94.5206 41.6951C94.1369 43.3 95.2299 44.3184 96.2571 45.3487C96.5349 45.6278 97.0754 46.1371 96.9828 46.6017C96.8544 47.2505 95.7555 47.1614 95.312 47.1035C94.3549 46.9788 93.6382 46.4503 93.2291 45.5863C93.017 45.1379 92.4033 45.4096 92.3705 45.8179C92.1495 48.5718 96.0347 49.8857 97.9175 48.0908C98.8328 47.2179 98.6342 45.8639 97.9549 44.9123C97.5368 44.3273 96.9335 43.9324 96.4766 43.3861C96.1392 42.9823 95.8391 42.3483 96.1243 41.8258C96.4796 41.1755 97.5009 41.3744 97.389 42.1598C97.3068 42.7314 98.0892 43.2005 98.4132 42.5889L98.4118 42.5874Z" fill="black"/>
<path id="Vector_10" d="M105.568 39.4237C104.714 39.1579 103.783 39.486 102.943 39.6924C102.037 39.9151 101.047 40.0175 100.233 40.4926C99.7988 40.7465 99.8556 41.4858 100.38 41.6016C101.225 41.7872 102.103 41.615 102.946 41.4457C102.772 41.5125 102.622 41.6862 102.59 41.9683C102.334 44.1314 101.641 46.5067 101.874 48.6935C101.946 49.3616 102.793 49.8218 103.127 49.0766C104.083 46.9432 103.835 44.2665 103.611 41.9698C103.573 41.5942 103.338 41.4116 103.1 41.416C103.143 41.4071 103.185 41.3982 103.229 41.3908C104.123 41.2141 105.185 41.0508 105.809 40.3367C106.08 40.0249 105.977 39.5543 105.567 39.4266L105.568 39.4237Z" fill="black"/>
<path id="Vector_11" d="M111.983 41.8644C111.584 40.7895 110.39 38.0192 108.886 39.6345C108.78 39.7473 108.741 39.8839 108.749 40.0175C108.728 40.0546 108.711 40.0932 108.701 40.1393C108.096 42.7952 106.955 45.8342 107.333 48.5792C107.393 49.0127 108.081 49.0662 108.266 48.701C108.777 47.6959 109.059 46.5498 109.238 45.3636C109.679 45.3354 110.148 45.276 110.551 45.1082C110.73 45.034 110.887 44.9405 111.029 44.8336C111.365 46.2217 111.456 48.0195 112.193 49.2458C112.534 49.8114 113.627 49.7951 113.74 49.0454C113.916 47.8963 113.504 46.7027 113.203 45.5922C112.862 44.3318 112.437 43.0906 111.983 41.8673V41.8644ZM109.881 43.6281C109.721 43.7082 109.568 43.7958 109.413 43.879C109.519 42.7239 109.574 41.5689 109.68 40.5015C109.998 40.788 110.37 42.3676 110.414 42.5206C110.491 42.7878 110.563 43.0565 110.636 43.3252C110.379 43.4098 110.13 43.5019 109.879 43.6281H109.881Z" fill="black"/>
<path id="Vector_12" d="M120.049 39.3717C119.811 40.8326 119.508 42.3008 119.153 43.7454C118.49 43.4959 117.806 43.0892 117.36 42.5532C116.809 41.8911 116.543 41.0434 116.276 40.2402C116.029 39.5024 114.908 39.7993 115.099 40.5624C115.513 42.2118 116.728 45.3829 118.905 44.7178C118.515 46.1742 117.608 47.9126 117.851 49.4269C117.909 49.7862 118.354 49.7951 118.58 49.6185C119.834 48.6356 120.177 46.3597 120.482 44.9019C120.858 43.0951 120.981 41.3329 120.931 39.4905C120.918 39.011 120.135 38.8566 120.05 39.3717H120.049Z" fill="black"/>
<path id="Vector_13" d="M90.8668 26.0043C85.5542 25.3927 86.0515 18.3467 86.1366 14.5269C86.1381 14.4393 86.141 14.3502 86.144 14.2626C86.7622 12.6696 87.3281 11.0559 87.8686 9.43466C88.7511 6.78761 90.0471 3.88521 89.853 1.04516C89.7978 0.246444 88.7078 -0.420143 88.0911 0.31919C84.7285 4.34989 83.861 9.47475 83.6997 14.5551C82.4649 17.4233 81.0121 20.2263 79.1681 22.7427C78.1273 24.1634 76.8731 25.5055 75.3352 26.3992C73.9331 27.2143 72.1368 27.7903 70.9334 26.4289C72.9521 24.6385 74.6155 22.4383 75.8921 20.0763C76.9687 18.0855 77.9541 15.7041 76.9657 13.4832C76.1355 11.6185 74.1332 10.5437 72.1577 11.3439C70.2435 12.1188 69.0296 14.132 68.2606 15.9402C67.3842 17.9993 67.0049 20.2901 67.2259 22.52C67.3259 23.5354 67.52 24.6118 67.8769 25.6198C62.3328 29.5392 53.7622 29.7767 49.8755 23.43C47.8299 20.0912 48.2868 15.9001 50.6296 12.8151C51.7435 11.3483 53.4218 10.0122 55.3091 9.78355C57.0889 9.56828 59.0673 10.3982 59.7378 12.1366C59.9229 12.6162 60.5889 12.4306 60.5067 11.9258C60.2186 10.1354 58.8837 8.79035 57.2143 8.16533C55.2837 7.44232 53.0768 7.89661 51.3851 9.0071C47.6508 11.4567 45.526 16.1629 46.1979 20.5558C46.8086 24.5405 49.7292 28.0768 53.3904 29.7262C57.6683 31.6533 62.621 31.2494 66.7869 29.223C67.5977 28.8281 68.3711 28.3708 69.1072 27.8616C69.2521 28.0368 69.4044 28.206 69.5716 28.3634C71.2365 29.943 73.4523 29.7975 75.4382 28.932C79.2382 27.2752 81.8348 23.4879 83.7281 19.7438C83.8446 21.3635 84.1417 22.9564 84.8599 24.4232C86.0216 26.7941 88.4345 28.5816 91.1446 28.0264C92.3854 27.7725 91.9404 26.1201 90.8683 25.9969L90.8668 26.0043ZM70.3764 16.4672C70.8975 15.3048 72.1189 12.8879 73.7494 13.259C75.589 13.6777 75.0948 16.2401 74.5692 17.4233C73.4851 19.8699 71.7845 22.2112 69.7672 24.0803C69.5462 23.2563 69.4432 22.3923 69.4118 21.6025C69.3417 19.8521 69.6567 18.0691 70.3764 16.4658V16.4672Z" fill="black"/>
<path id="Vector_14" d="M71.7098 6.16556C72.7953 5.64744 73.8121 5.015 74.8275 4.37216C75.6621 3.84513 76.9209 3.22902 77.3449 2.31301C77.5569 1.85724 77.321 1.08822 76.6834 1.1669C75.5934 1.30051 74.7185 2.17049 73.8868 2.85193C72.9162 3.64767 71.9532 4.45085 71.0871 5.36091C70.672 5.79738 71.1917 6.41201 71.7098 6.16408V6.16556Z" fill="black"/>
<path id="Vector_15" d="M98.2907 6.08243C98.6685 6.25315 99.0463 6.42537 99.4345 6.57383C99.7779 6.70596 100.147 6.74456 100.508 6.8084C100.848 6.86778 101.192 6.76831 101.376 6.45803C101.544 6.1715 101.502 5.76324 101.256 5.53312C100.969 5.26441 100.693 4.97639 100.365 4.75816C100.054 4.5518 99.7242 4.38107 99.3972 4.20292C98.8775 3.92084 98.2026 4.07524 97.898 4.59337C97.6233 5.06102 97.7502 5.83895 98.2907 6.08391V6.08243Z" fill="black"/>
<path id="Vector_16" d="M100.913 26.7719C98.9253 27.4221 97.9354 25.2116 97.7069 23.6601C97.3531 21.2581 97.5696 18.7016 97.8413 16.3024C97.9862 15.0301 95.9181 14.7896 95.615 16.0026C95.1731 17.7677 94.9431 19.5404 94.9058 21.359C94.8744 22.8881 94.8774 24.5539 95.4254 26.0028C95.9361 27.3538 96.8305 28.5371 98.234 29.0344C99.5241 29.4917 100.84 29.3209 101.831 28.3411C102.479 27.7012 101.827 26.472 100.913 26.7719Z" fill="black"/>
<path id="Vector_17" d="M107.323 29.7648C108.317 30.8931 109.903 31.291 111.304 30.7254C114.475 29.4442 115.356 25.0868 115.363 22.0731C115.366 20.4727 115.104 18.5427 114.396 16.8889C116.28 16.9735 118.171 16.8191 120.044 16.3782C121.508 16.0337 121.215 13.6717 119.686 13.746C116.61 13.8974 113.497 13.8514 110.461 13.2976C108.573 12.8997 107.76 15.7264 109.658 16.1926C109.766 16.2193 109.875 16.2431 109.982 16.2683C111.084 16.6038 111.645 17.7247 111.977 18.7966C112.5 20.4816 112.625 22.3077 112.34 24.0491C112.125 25.366 111.713 27.3167 110.449 28.0724C109.339 28.736 108.825 27.0718 108.616 26.2864C106.697 19.089 107.639 11.5977 109.097 4.42709C109.237 3.73527 108.226 3.19784 107.877 3.91639C104.652 10.5451 104.35 18.467 105.697 25.6139C105.972 27.0732 106.307 28.6172 107.321 29.7663L107.323 29.7648Z" fill="black"/>
</g>
<defs>
<clipPath id="clip0_2_260">
<rect width="121" height="50" fill="white"/>
</clipPath>
</defs>
</svg>
